PathFileType	4	(X/Y/Z)	./resultDataOpenSim/trcMotMarkerGrf/sub10/qtm-12-04.trc
DataRate	CameraRate	NumFrames	NumMarkers	Units	OrigDataRate	OrigDataStartFrame	OrigNumFrames
250.000000	250.000000	7	24	m	250.000000	1	478
Frame#	Time	L.Toe.Tip			R.Toe.Tip			L.Ankle.Lat			R.Ankle.Lat			L.Ankle.Med			R.Ankle.Med			L.Heel			R.Heel			L.Knee.Lat			R.Knee.Lat			L.Knee.Med			R.Knee.Med			L.Thigh.Upper			R.Thigh.Upper			L.ASIS			R.ASIS			V.Sacral			L.Acromium			R.Acromium			C7			L.Elbow			R.Elbow			L.Wrist.Lat			R.Wrist.Lat
		X1	Y1	Z1	X2	Y2	Z2	X3	Y3	Z3	X4	Y4	Z4	X5	Y5	Z5	X6	Y6	Z6	X7	Y7	Z7	X8	Y8	Z8	X9	Y9	Z9	X10	Y10	Z10	X11	Y11	Z11	X12	Y12	Z12	X13	Y13	Z13	X14	Y14	Z14	X15	Y15	Z15	X16	Y16	Z16	X17	Y17	Z17	X18	Y18	Z18	X19	Y19	Z19	X20	Y20	Z20	X21	Y21	Z21	X22	Y22	Z22	X23	Y23	Z23	X24	Y24	Z24

1	0	-1.5461314	0.037473206	-0.2226528	-0.91147768	0.12304245	-0.046563834	-1.6757315	0.076549714	-0.24384853	-1.0456637	0.073711305	-0.025252698	-1.6594763	0.097277008	-0.16119385	-1.0336236	0.11505954	-0.1028104	NaN	NaN	NaN	-1.07129	0.032820977	-0.081524801	-1.5310537	0.4335056	-0.28056071	-1.2301735	0.43700548	0.0039652652	-1.5283158	0.41312576	-0.15939011	-1.2012129	0.44456358	-0.1217641	-1.4150459	0.81336405	-0.34176016	-1.3590218	0.8285102	0.04083173	-1.3396508	0.9154966	-0.28362338	-1.3018329	0.92865971	-0.0432327	-1.5206715	0.9278281	-0.13485033	-1.3450185	1.3796301	-0.32308038	-1.3723798	1.3872257	-0.00064171045	-1.4380613	1.4210765	-0.17365087	-1.3769667	1.0265191	-0.36346034	NaN	NaN	NaN	-1.1455514	0.92955948	-0.3513755	-1.4939466	0.87898078	0.15107101
2	0.004	-1.5460421	0.037482118	-0.22267197	-0.901535	0.12490535	-0.046341574	-1.6750987	0.077692655	-0.24375868	-1.0359971	0.073845725	-0.024004753	-1.6581995	0.098270518	-0.16119811	-1.0238719	0.11583158	-0.10129622	NaN	NaN	NaN	-1.0608612	0.03328334	-0.079732696	-1.5269914	0.43318861	-0.28054558	-1.2158814	0.43930993	0.0074377975	-1.5238132	0.41268803	-0.15928703	-1.1958441	0.44336139	-0.12081395	-1.4098465	0.81280691	-0.34171818	-1.3524776	0.82662769	0.041167704	-1.3339994	0.91458679	-0.28352338	-1.2956215	0.92727438	-0.043123843	-1.5145797	0.92786882	-0.1325894	-1.3401406	1.3785677	-0.32255657	-1.3674893	1.3858916	2.9672143e-05	-1.4333552	1.4199585	-0.17303652	-1.3705805	1.0252844	-0.36241843	NaN	NaN	NaN	-1.1381847	0.93065441	-0.34988627	-1.4902542	0.87760998	0.15117216
3	0.008	-1.5459537	0.037493465	-0.22269874	-0.89196355	0.12641677	-0.045781889	-1.6744722	0.078864402	-0.24372049	-1.0264755	0.073985334	-0.022718338	-1.6569823	0.099317204	-0.16123881	-1.0144925	0.11645349	-0.099833545	NaN	NaN	NaN	-1.0508736	0.033632593	-0.077974387	-1.522835	0.43286088	-0.28059984	-1.2039468	0.44097816	0.010027584	-1.5193218	0.41223904	-0.15921043	-1.1903141	0.44227394	-0.11986878	-1.4046881	0.81224225	-0.34164347	-1.3458063	0.82481653	0.041535459	-1.3283338	0.91367882	-0.2834573	-1.2893509	0.92586503	-0.043012311	-1.5084912	0.92778873	-0.13046499	-1.3352451	1.3775605	-0.32203493	-1.3625781	1.3846246	0.00071101241	-1.4286231	1.4188777	-0.17240718	-1.3641943	1.0240858	-0.3615478	NaN	NaN	NaN	-1.1308509	0.93172981	-0.34840533	-1.4863351	0.87620985	0.15130106
4	0.012	-1.545861	0.037510285	-0.22273734	-0.88301459	0.12741095	-0.044886143	-1.6738631	0.080094313	-0.24377389	-1.0172839	0.074088578	-0.021382412	-1.6561461	0.10037514	-0.1612445	-1.0056703	0.1168149	-0.098442547	NaN	NaN	NaN	-1.0416038	0.033789378	-0.076255258	-1.5185475	0.4325081	-0.28072027	-1.19533	0.44165773	0.011335787	-1.5147637	0.41178258	-0.15919148	-1.1845227	0.44137174	-0.11895884	-1.3995769	0.81168009	-0.34153148	-1.3389172	0.82314713	0.041945935	-1.3226314	0.91277554	-0.28343496	-1.2829804	0.92443215	-0.042897089	-1.502438	0.92736175	-0.1287258	-1.3303037	1.3766261	-0.32149897	-1.3576107	1.3834393	0.0014041108	-1.4238396	1.4178469	-0.17173736	-1.357859	1.0229339	-0.36099169	NaN	NaN	NaN	-1.1235702	0.93278509	-0.34694336	-1.4821549	0.87478524	0.15145508
5	0.016	-1.5457555	0.03753373	-0.2227882	-0.87479358	0.12788623	-0.043954292	-1.6732735	0.081403246	-0.24394333	-1.008601	0.074091955	-0.02000516	-1.6563154	0.10129587	-0.1610249	-0.99746901	0.1168555	-0.097124878	NaN	NaN	NaN	-1.0331544	0.033719121	-0.074553139	-1.5141252	0.43212957	-0.28087592	-1.1888344	0.44158664	0.011741729	-1.5100753	0.41130815	-0.1592437	-1.1784527	0.44067787	-0.11812104	-1.3945009	0.81114524	-0.34139491	-1.3317984	0.82167826	0.042400071	-1.3168768	0.9118842	-0.28343954	-1.276506	0.92299631	-0.042777373	-1.4964355	0.92652898	-0.12745581	-1.3253004	1.375751	-0.32093416	-1.3525565	1.3823128	0.0021112908	-1.4190037	1.4168616	-0.17101821	-1.3516047	1.0218296	-0.36064292	NaN	NaN	NaN	-1.1163728	0.93382663	-0.3455122	-1.4778174	0.87337322	0.15161432
6	0.02	-1.5456327	0.03756203	-0.22285114	-0.8672824	0.12785464	-0.043222245	-1.6726772	0.082801188	-0.24422702	-1.000529	0.073950211	-0.018601211	-1.65789	0.1019695	-0.16044921	-0.98990204	0.11656514	-0.095880844	NaN	NaN	NaN	-1.0255141	0.033425504	-0.072838271	-1.509561	0.43174208	-0.28105026	-1.1823784	0.44137866	0.011965094	-1.5052797	0.4107885	-0.15935155	-1.1721143	0.44020823	-0.11737641	-1.389442	0.81066593	-0.34124654	-1.3245105	0.82044226	0.042892665	-1.311059	0.9110142	-0.28344863	-1.2699377	0.92157825	-0.042654196	-1.4904426	0.92548681	-0.12647371	-1.320236	1.374925	-0.32033625	-1.3474113	1.3812331	0.0028400263	-1.4141295	1.4159146	-0.17027061	-1.3453812	1.0207829	-0.36015849	NaN	NaN	NaN	-1.1092786	0.93485521	-0.34410898	-1.473415	0.87200945	0.15176393
7	0.024	-1.5454965	0.037592915	-0.22292715	-0.86040497	0.12730123	-0.04267046	-1.6720296	0.084285761	-0.24458823	-0.99311456	0.07364189	-0.017197382	-1.6601878	0.10252936	-0.15971654	-0.98292846	0.11597471	-0.094706816	NaN	NaN	NaN	-1.0186336	0.032931048	-0.071095059	-1.504876	0.43136827	-0.28123096	-1.1749366	0.4414281	0.01238361	-1.5004285	0.41023356	-0.159488	-1.1655088	0.43998484	-0.11672012	-1.3843796	0.81026032	-0.34109206	-1.3171577	0.81944853	0.043404266	-1.3051877	0.91017122	-0.28346102	-1.263292	0.92019709	-0.042531679	-1.4844038	0.92445896	-0.12556093	-1.3151189	1.3741534	-0.31970178	-1.3421918	1.3802222	0.0035887515	-1.4092319	1.4150044	-0.16951783	-1.3391429	1.019807	-0.35933254	NaN	NaN	NaN	-1.1022855	0.93586922	-0.34271427	-1.4690006	0.87070607	0.15189827
